<svg width="24" height="24" viewBox="0 0 24 24" fill="none" xmlns="http://www.w3.org/2000/svg">
<rect x="15" y="15" width="2" height="4" fill="#00FF85"/>
<rect x="7" y="5" width="2" height="4" fill="#00FF85"/>
<path d="M18 16C18 14.8954 17.1046 14 16 14C14.8954 14 14 14.8954 14 16V18C14 19.1046 14.8954 20 16 20C17.1046 20 18 19.1046 18 18V16Z" stroke="black" stroke-width="2" stroke-linecap="round" stroke-linejoin="round"/>
<path d="M10 6C10 4.89543 9.10457 4 8 4C6.89543 4 6 4.89543 6 6V8C6 9.10457 6.89543 10 8 10C9.10457 10 10 9.10457 10 8V6Z" stroke="black" stroke-width="2" stroke-linecap="round" stroke-linejoin="round"/>
<path d="M6 20H10" stroke="black" stroke-width="2" stroke-linecap="round" stroke-linejoin="round"/>
<path d="M14 10H18" stroke="black" stroke-width="2" stroke-linecap="round" stroke-linejoin="round"/>
<path d="M6 14H8V20" stroke="black" stroke-width="2" stroke-linecap="round" stroke-linejoin="round"/>
<path d="M14 4H16V10" stroke="black" stroke-width="2" stroke-linecap="round" stroke-linejoin="round"/>
</svg>
